<svg xmlns="http://www.w3.org/2000/svg" width="300" height="300">
	<rect width="300" style="fill:#FFCCBB" height="300" />
	<g transform="translate(38, 212)" >
		<circle r="20" cx="0" cy="0" style="stroke:#000000; fill: #ff0000" />
	</g>
	<g transform="translate(245, 194)" >
		<circle r="20" cx="0" cy="0" style="stroke:#000000; fill: #ff0000" />
	</g>
	<g transform="translate(25, 146)" >
		<circle r="20" cx="0" cy="0" style="stroke:#000000; fill: #ff0000" />
	</g>
	<g transform="translate(134, 57)" >
		<circle r="20" cx="0" cy="0" style="stroke:#000000; fill: #ff0000" />
	</g>
	<g transform="translate(40, 68)" >
		<circle r="20" cx="0" cy="0" style="stroke:#000000; fill: #ff0000" />
	</g>
	<g transform="translate(299, 115)" >
		<circle r="20" cx="0" cy="0" style="stroke:#000000; fill: #ff0000" />
	</g>
	<g transform="translate(252, 106)" >
		<circle r="20" cx="0" cy="0" style="stroke:#000000; fill: #ff0000" />
	</g>
	<g transform="translate(105, 211)" >
		<circle r="20" cx="0" cy="0" style="stroke:#000000; fill: #ff0000" />
	</g>
	<g transform="translate(83, 276)" >
		<circle r="20" cx="0" cy="0" style="stroke:#000000; fill: #ff0000" />
	</g>
	<g transform="translate(258, 178)" >
		<circle r="20" cx="0" cy="0" style="stroke:#000000; fill: #ff0000" />
	</g>
	<g transform="translate(263, 17)" >
		<circle r="20" cx="0" cy="0" style="stroke:#000000; fill: #ff0000" />
	</g>
	<g transform="translate(192, 222)" >
		<circle r="20" cx="0" cy="0" style="stroke:#000000; fill: #ff0000" />
	</g>
	<g transform="translate(285, 113)" >
		<circle r="20" cx="0" cy="0" style="stroke:#000000; fill: #ff0000" />
	</g>
	<g transform="translate(64, 85)" >
		<circle r="20" cx="0" cy="0" style="stroke:#000000; fill: #ff0000" />
	</g>
	<g transform="translate(117, 141)" >
		<circle r="20" cx="0" cy="0" style="stroke:#000000; fill: #ff0000" />
	</g>
	<g transform="translate(53, 27)" >
		<circle r="20" cx="0" cy="0" style="stroke:#000000; fill: #ff0000" />
	</g>
	<g transform="translate(103, 174)" >
		<circle r="20" cx="0" cy="0" style="stroke:#000000; fill: #ff0000" />
	</g>
	<g transform="translate(227, 218)" >
		<circle r="20" cx="0" cy="0" style="stroke:#000000; fill: #ff0000" />
	</g>
	<g transform="translate(118, 124)" >
		<circle r="20" cx="0" cy="0" style="stroke:#000000; fill: #ff0000" />
	</g>
	<g transform="translate(0, 11)" >
		<circle r="20" cx="0" cy="0" style="stroke:#000000; fill: #ff0000" />
	</g>
	<g transform="translate(285, 230)" >
		<circle r="20" cx="0" cy="0" style="stroke:#000000; fill: #ff0000" />
	</g>
	<g transform="translate(125, 33)" >
		<circle r="20" cx="0" cy="0" style="stroke:#000000; fill: #ff0000" />
	</g>
	<g transform="translate(106, 9)" >
		<circle r="20" cx="0" cy="0" style="stroke:#000000; fill: #ff0000" />
	</g>
	<g transform="translate(92, 268)" >
		<circle r="20" cx="0" cy="0" style="stroke:#000000; fill: #ff0000" />
	</g>
	<g transform="translate(47, 113)" >
		<circle r="20" cx="0" cy="0" style="stroke:#000000; fill: #ff0000" />
	</g>
	<g transform="translate(15, 116)" >
		<circle r="20" cx="0" cy="0" style="stroke:#000000; fill: #ff0000" />
	</g>
	<g transform="translate(296, 75)" >
		<circle r="20" cx="0" cy="0" style="stroke:#000000; fill: #ff0000" />
	</g>
	<g transform="translate(289, 5)" >
		<circle r="20" cx="0" cy="0" style="stroke:#000000; fill: #ff0000" />
	</g>
	<g transform="translate(36, 8)" >
		<circle r="20" cx="0" cy="0" style="stroke:#000000; fill: #ff0000" />
	</g>
	<g transform="translate(21, 289)" >
		<circle r="20" cx="0" cy="0" style="stroke:#000000; fill: #ff0000" />
	</g>
	<g transform="translate(292, 18)" >
		<circle r="20" cx="0" cy="0" style="stroke:#000000; fill: #ff0000" />
	</g>
	<g transform="translate(83, 208)" >
		<circle r="20" cx="0" cy="0" style="stroke:#000000; fill: #ff0000" />
	</g>
	<g transform="translate(202, 250)" >
		<circle r="20" cx="0" cy="0" style="stroke:#000000; fill: #ff0000" />
	</g>
	<g transform="translate(271, 228)" >
		<circle r="20" cx="0" cy="0" style="stroke:#000000; fill: #ff0000" />
	</g>
	<g transform="translate(4, 39)" >
		<circle r="20" cx="0" cy="0" style="stroke:#000000; fill: #ff0000" />
	</g>
	<g transform="translate(9, 216)" >
		<circle r="20" cx="0" cy="0" style="stroke:#000000; fill: #ff0000" />
	</g>
	<g transform="translate(27, 147)" >
		<circle r="20" cx="0" cy="0" style="stroke:#000000; fill: #ff0000" />
	</g>
	<g transform="translate(10, 139)" >
		<circle r="20" cx="0" cy="0" style="stroke:#000000; fill: #ff0000" />
	</g>
	<g transform="translate(11, 88)" >
		<circle r="20" cx="0" cy="0" style="stroke:#000000; fill: #ff0000" />
	</g>
	<g transform="translate(238, 199)" >
		<circle r="20" cx="0" cy="0" style="stroke:#000000; fill: #ff0000" />
	</g>
	<g transform="translate(221, 257)" >
		<circle r="20" cx="0" cy="0" style="stroke:#000000; fill: #ff0000" />
	</g>
	<g transform="translate(171, 206)" >
		<circle r="20" cx="0" cy="0" style="stroke:#000000; fill: #ff0000" />
	</g>
	<g transform="translate(140, 206)" >
		<circle r="20" cx="0" cy="0" style="stroke:#000000; fill: #ff0000" />
	</g>
	<g transform="translate(251, 66)" >
		<circle r="20" cx="0" cy="0" style="stroke:#000000; fill: #ff0000" />
	</g>
	<g transform="translate(155, 154)" >
		<circle r="20" cx="0" cy="0" style="stroke:#000000; fill: #ff0000" />
	</g>
	<g transform="translate(183, 45)" >
		<circle r="20" cx="0" cy="0" style="stroke:#000000; fill: #ff0000" />
	</g>
	<g transform="translate(52, 145)" >
		<circle r="20" cx="0" cy="0" style="stroke:#000000; fill: #ff0000" />
	</g>
	<g transform="translate(262, 225)" >
		<circle r="20" cx="0" cy="0" style="stroke:#000000; fill: #ff0000" />
	</g>
	<g transform="translate(185, 67)" >
		<circle r="20" cx="0" cy="0" style="stroke:#000000; fill: #ff0000" />
	</g>
	<g transform="translate(217, 111)" >
		<circle r="20" cx="0" cy="0" style="stroke:#000000; fill: #ff0000" />
	</g>
	<g transform="translate(287, 268)" >
		<circle r="20" cx="0" cy="0" style="stroke:#000000; fill: #ff0000" />
	</g>
	<g transform="translate(280, 125)" >
		<circle r="20" cx="0" cy="0" style="stroke:#000000; fill: #ff0000" />
	</g>
	<g transform="translate(203, 97)" >
		<circle r="20" cx="0" cy="0" style="stroke:#000000; fill: #ff0000" />
	</g>
	<g transform="translate(219, 234)" >
		<circle r="20" cx="0" cy="0" style="stroke:#000000; fill: #ff0000" />
	</g>
	<g transform="translate(234, 16)" >
		<circle r="20" cx="0" cy="0" style="stroke:#000000; fill: #ff0000" />
	</g>
	<g transform="translate(115, 30)" >
		<circle r="20" cx="0" cy="0" style="stroke:#000000; fill: #ff0000" />
	</g>
	<g transform="translate(279, 168)" >
		<circle r="20" cx="0" cy="0" style="stroke:#000000; fill: #ff0000" />
	</g>
	<g transform="translate(116, 164)" >
		<circle r="20" cx="0" cy="0" style="stroke:#000000; fill: #ff0000" />
	</g>
	<g transform="translate(208, 279)" >
		<circle r="20" cx="0" cy="0" style="stroke:#000000; fill: #ff0000" />
	</g>
	<g transform="translate(285, 104)" >
		<circle r="20" cx="0" cy="0" style="stroke:#000000; fill: #ff0000" />
	</g>
	<g transform="translate(33, 150)" >
		<circle r="20" cx="0" cy="0" style="stroke:#000000; fill: #ff0000" />
	</g>
	<g transform="translate(30, 177)" >
		<circle r="20" cx="0" cy="0" style="stroke:#000000; fill: #ff0000" />
	</g>
	<g transform="translate(263, 11)" >
		<circle r="20" cx="0" cy="0" style="stroke:#000000; fill: #ff0000" />
	</g>
	<g transform="translate(187, 16)" >
		<circle r="20" cx="0" cy="0" style="stroke:#000000; fill: #ff0000" />
	</g>
	<g transform="translate(25, 242)" >
		<circle r="20" cx="0" cy="0" style="stroke:#000000; fill: #ff0000" />
	</g>
	<g transform="translate(33, 123)" >
		<circle r="20" cx="0" cy="0" style="stroke:#000000; fill: #ff0000" />
	</g>
	<g transform="translate(155, 222)" >
		<circle r="20" cx="0" cy="0" style="stroke:#000000; fill: #ff0000" />
	</g>
	<g transform="translate(262, 58)" >
		<circle r="20" cx="0" cy="0" style="stroke:#000000; fill: #ff0000" />
	</g>
	<g transform="translate(85, 70)" >
		<circle r="20" cx="0" cy="0" style="stroke:#000000; fill: #ff0000" />
	</g>
	<g transform="translate(198, 4)" >
		<circle r="20" cx="0" cy="0" style="stroke:#000000; fill: #ff0000" />
	</g>
	<g transform="translate(180, 280)" >
		<circle r="20" cx="0" cy="0" style="stroke:#000000; fill: #ff0000" />
	</g>
	<g transform="translate(29, 254)" >
		<circle r="20" cx="0" cy="0" style="stroke:#000000; fill: #ff0000" />
	</g>
	<g transform="translate(58, 290)" >
		<circle r="20" cx="0" cy="0" style="stroke:#000000; fill: #ff0000" />
	</g>
	<g transform="translate(56, 212)" >
		<circle r="20" cx="0" cy="0" style="stroke:#000000; fill: #ff0000" />
	</g>
	<g transform="translate(242, 82)" >
		<circle r="20" cx="0" cy="0" style="stroke:#000000; fill: #ff0000" />
	</g>
	<g transform="translate(168, 197)" >
		<circle r="20" cx="0" cy="0" style="stroke:#000000; fill: #ff0000" />
	</g>
	<g transform="translate(180, 45)" >
		<circle r="20" cx="0" cy="0" style="stroke:#000000; fill: #ff0000" />
	</g>
	<g transform="translate(26, 186)" >
		<circle r="20" cx="0" cy="0" style="stroke:#000000; fill: #ff0000" />
	</g>
	<g transform="translate(123, 191)" >
		<circle r="20" cx="0" cy="0" style="stroke:#000000; fill: #ff0000" />
	</g>
	<g transform="translate(165, 206)" >
		<circle r="20" cx="0" cy="0" style="stroke:#000000; fill: #ff0000" />
	</g>
	<g transform="translate(158, 257)" >
		<circle r="20" cx="0" cy="0" style="stroke:#000000; fill: #ff0000" />
	</g>
	<g transform="translate(11, 233)" >
		<circle r="20" cx="0" cy="0" style="stroke:#000000; fill: #ff0000" />
	</g>
	<g transform="translate(97, 43)" >
		<circle r="20" cx="0" cy="0" style="stroke:#000000; fill: #ff0000" />
	</g>
	<g transform="translate(130, 75)" >
		<circle r="20" cx="0" cy="0" style="stroke:#000000; fill: #ff0000" />
	</g>
	<g transform="translate(69, 153)" >
		<circle r="20" cx="0" cy="0" style="stroke:#000000; fill: #ff0000" />
	</g>
	<g transform="translate(192, 281)" >
		<circle r="20" cx="0" cy="0" style="stroke:#000000; fill: #ff0000" />
	</g>
	<g transform="translate(103, 29)" >
		<circle r="20" cx="0" cy="0" style="stroke:#000000; fill: #ff0000" />
	</g>
	<g transform="translate(201, 259)" >
		<circle r="20" cx="0" cy="0" style="stroke:#000000; fill: #ff0000" />
	</g>
	<g transform="translate(93, 112)" >
		<circle r="20" cx="0" cy="0" style="stroke:#000000; fill: #ff0000" />
	</g>
	<g transform="translate(281, 165)" >
		<circle r="20" cx="0" cy="0" style="stroke:#000000; fill: #ff0000" />
	</g>
	<g transform="translate(40, 143)" >
		<circle r="20" cx="0" cy="0" style="stroke:#000000; fill: #ff0000" />
	</g>
	<g transform="translate(23, 268)" >
		<circle r="20" cx="0" cy="0" style="stroke:#000000; fill: #ff0000" />
	</g>
	<g transform="translate(98, 0)" >
		<circle r="20" cx="0" cy="0" style="stroke:#000000; fill: #ff0000" />
	</g>
	<g transform="translate(4, 47)" >
		<circle r="20" cx="0" cy="0" style="stroke:#000000; fill: #ff0000" />
	</g>
	<g transform="translate(200, 266)" >
		<circle r="20" cx="0" cy="0" style="stroke:#000000; fill: #ff0000" />
	</g>
	<g transform="translate(65, 211)" >
		<circle r="20" cx="0" cy="0" style="stroke:#000000; fill: #ff0000" />
	</g>
	<g transform="translate(136, 217)" >
		<circle r="20" cx="0" cy="0" style="stroke:#000000; fill: #ff0000" />
	</g>
	<g transform="translate(195, 89)" >
		<circle r="20" cx="0" cy="0" style="stroke:#000000; fill: #ff0000" />
	</g>
	<g transform="translate(204, 192)" >
		<circle r="20" cx="0" cy="0" style="stroke:#000000; fill: #ff0000" />
	</g>
	<g transform="translate(85, 260)" >
		<circle r="20" cx="0" cy="0" style="stroke:#000000; fill: #ff0000" />
	</g>
	<g transform="translate(55, 298)" >
		<rect x="-15" width="30" y="-15" height="30" />
	</g>
	<g transform="translate(149, 200)" >
		<rect x="-15" width="30" y="-15" height="30" />
	</g>
	<g transform="translate(173, 263)" >
		<rect x="-15" width="30" y="-15" height="30" />
	</g>
	<g transform="translate(193, 1)" >
		<rect x="-15" width="30" y="-15" height="30" />
	</g>
	<g transform="translate(275, 100)" >
		<rect x="-15" width="30" y="-15" height="30" />
	</g>
	<g transform="translate(122, 236)" >
		<rect x="-15" width="30" y="-15" height="30" />
	</g>
	<g transform="translate(249, 253)" >
		<rect x="-15" width="30" y="-15" height="30" />
	</g>
	<g transform="translate(86, 208)" >
		<rect x="-15" width="30" y="-15" height="30" />
	</g>
	<g transform="translate(216, 228)" >
		<rect x="-15" width="30" y="-15" height="30" />
	</g>
	<g transform="translate(206, 5)" >
		<rect x="-15" width="30" y="-15" height="30" />
	</g>
	<g transform="translate(268, 260)" >
		<rect x="-15" width="30" y="-15" height="30" />
	</g>
	<g transform="translate(63, 203)" >
		<rect x="-15" width="30" y="-15" height="30" />
	</g>
	<g transform="translate(278, 59)" >
		<rect x="-15" width="30" y="-15" height="30" />
	</g>
	<g transform="translate(89, 121)" >
		<rect x="-15" width="30" y="-15" height="30" />
	</g>
	<g transform="translate(240, 104)" >
		<rect x="-15" width="30" y="-15" height="30" />
	</g>
	<g transform="translate(135, 181)" >
		<rect x="-15" width="30" y="-15" height="30" />
	</g>
	<g transform="translate(182, 117)" >
		<rect x="-15" width="30" y="-15" height="30" />
	</g>
	<g transform="translate(118, 297)" >
		<rect x="-15" width="30" y="-15" height="30" />
	</g>
	<g transform="translate(89, 30)" >
		<rect x="-15" width="30" y="-15" height="30" />
	</g>
	<g transform="translate(245, 84)" >
		<rect x="-15" width="30" y="-15" height="30" />
	</g>
	<g transform="translate(51, 216)" >
		<rect x="-15" width="30" y="-15" height="30" />
	</g>
	<g transform="translate(18, 43)" >
		<rect x="-15" width="30" y="-15" height="30" />
	</g>
	<g transform="translate(150, 157)" >
		<rect x="-15" width="30" y="-15" height="30" />
	</g>
	<g transform="translate(23, 62)" >
		<rect x="-15" width="30" y="-15" height="30" />
	</g>
	<g transform="translate(29, 159)" >
		<rect x="-15" width="30" y="-15" height="30" />
	</g>
	<g transform="translate(145, 267)" >
		<rect x="-15" width="30" y="-15" height="30" />
	</g>
	<g transform="translate(229, 252)" >
		<rect x="-15" width="30" y="-15" height="30" />
	</g>
	<g transform="translate(126, 194)" >
		<rect x="-15" width="30" y="-15" height="30" />
	</g>
	<g transform="translate(98, 142)" >
		<rect x="-15" width="30" y="-15" height="30" />
	</g>
	<g transform="translate(34, 224)" >
		<rect x="-15" width="30" y="-15" height="30" />
	</g>
	<g transform="translate(34, 240)" >
		<rect x="-15" width="30" y="-15" height="30" />
	</g>
	<g transform="translate(123, 114)" >
		<rect x="-15" width="30" y="-15" height="30" />
	</g>
	<g transform="translate(147, 270)" >
		<rect x="-15" width="30" y="-15" height="30" />
	</g>
	<g transform="translate(257, 240)" >
		<rect x="-15" width="30" y="-15" height="30" />
	</g>
	<g transform="translate(64, 249)" >
		<rect x="-15" width="30" y="-15" height="30" />
	</g>
	<g transform="translate(188, 188)" >
		<rect x="-15" width="30" y="-15" height="30" />
	</g>
	<g transform="translate(146, 251)" >
		<rect x="-15" width="30" y="-15" height="30" />
	</g>
	<g transform="translate(195, 9)" >
		<rect x="-15" width="30" y="-15" height="30" />
	</g>
	<g transform="translate(273, 14)" >
		<rect x="-15" width="30" y="-15" height="30" />
	</g>
	<g transform="translate(51, 22)" >
		<rect x="-15" width="30" y="-15" height="30" />
	</g>
	<g transform="translate(19, 215)" >
		<rect x="-15" width="30" y="-15" height="30" />
	</g>
	<g transform="translate(66, 221)" >
		<rect x="-15" width="30" y="-15" height="30" />
	</g>
	<g transform="translate(182, 71)" >
		<rect x="-15" width="30" y="-15" height="30" />
	</g>
	<g transform="translate(122, 184)" >
		<rect x="-15" width="30" y="-15" height="30" />
	</g>
	<g transform="translate(242, 282)" >
		<rect x="-15" width="30" y="-15" height="30" />
	</g>
	<g transform="translate(228, 159)" >
		<rect x="-15" width="30" y="-15" height="30" />
	</g>
	<g transform="translate(289, 252)" >
		<rect x="-15" width="30" y="-15" height="30" />
	</g>
	<g transform="translate(193, 243)" >
		<rect x="-15" width="30" y="-15" height="30" />
	</g>
	<g transform="translate(246, 61)" >
		<rect x="-15" width="30" y="-15" height="30" />
	</g>
	<g transform="translate(19, 39)" >
		<rect x="-15" width="30" y="-15" height="30" />
	</g>
	<g transform="translate(289, 293)" >
		<rect x="-15" width="30" y="-15" height="30" />
	</g>
	<g transform="translate(131, 1)" >
		<rect x="-15" width="30" y="-15" height="30" />
	</g>
	<g transform="translate(68, 5)" >
		<rect x="-15" width="30" y="-15" height="30" />
	</g>
	<g transform="translate(260, 251)" >
		<rect x="-15" width="30" y="-15" height="30" />
	</g>
	<g transform="translate(256, 133)" >
		<rect x="-15" width="30" y="-15" height="30" />
	</g>
	<g transform="translate(89, 113)" >
		<rect x="-15" width="30" y="-15" height="30" />
	</g>
	<g transform="translate(16, 31)" >
		<rect x="-15" width="30" y="-15" height="30" />
	</g>
	<g transform="translate(155, 96)" >
		<rect x="-15" width="30" y="-15" height="30" />
	</g>
	<g transform="translate(76, 105)" >
		<rect x="-15" width="30" y="-15" height="30" />
	</g>
	<g transform="translate(228, 117)" >
		<rect x="-15" width="30" y="-15" height="30" />
	</g>
	<g transform="translate(258, 19)" >
		<rect x="-15" width="30" y="-15" height="30" />
	</g>
	<g transform="translate(132, 104)" >
		<rect x="-15" width="30" y="-15" height="30" />
	</g>
	<g transform="translate(173, 188)" >
		<rect x="-15" width="30" y="-15" height="30" />
	</g>
	<g transform="translate(62, 19)" >
		<rect x="-15" width="30" y="-15" height="30" />
	</g>
	<g transform="translate(150, 175)" >
		<rect x="-15" width="30" y="-15" height="30" />
	</g>
	<g transform="translate(245, 239)" >
		<rect x="-15" width="30" y="-15" height="30" />
	</g>
	<g transform="translate(120, 173)" >
		<rect x="-15" width="30" y="-15" height="30" />
	</g>
	<g transform="translate(274, 247)" >
		<rect x="-15" width="30" y="-15" height="30" />
	</g>
	<g transform="translate(49, 170)" >
		<rect x="-15" width="30" y="-15" height="30" />
	</g>
	<g transform="translate(149, 256)" >
		<rect x="-15" width="30" y="-15" height="30" />
	</g>
	<g transform="translate(31, 62)" >
		<rect x="-15" width="30" y="-15" height="30" />
	</g>
	<g transform="translate(22, 153)" >
		<rect x="-15" width="30" y="-15" height="30" />
	</g>
	<g transform="translate(185, 55)" >
		<rect x="-15" width="30" y="-15" height="30" />
	</g>
	<g transform="translate(289, 223)" >
		<rect x="-15" width="30" y="-15" height="30" />
	</g>
	<g transform="translate(262, 133)" >
		<rect x="-15" width="30" y="-15" height="30" />
	</g>
	<g transform="translate(264, 249)" >
		<rect x="-15" width="30" y="-15" height="30" />
	</g>
	<g transform="translate(128, 141)" >
		<rect x="-15" width="30" y="-15" height="30" />
	</g>
	<g transform="translate(286, 107)" >
		<rect x="-15" width="30" y="-15" height="30" />
	</g>
	<g transform="translate(74, 83)" >
		<rect x="-15" width="30" y="-15" height="30" />
	</g>
	<g transform="translate(70, 208)" >
		<rect x="-15" width="30" y="-15" height="30" />
	</g>
	<g transform="translate(289, 106)" >
		<rect x="-15" width="30" y="-15" height="30" />
	</g>
	<g transform="translate(1, 166)" >
		<rect x="-15" width="30" y="-15" height="30" />
	</g>
	<g transform="translate(261, 194)" >
		<rect x="-15" width="30" y="-15" height="30" />
	</g>
	<g transform="translate(291, 73)" >
		<rect x="-15" width="30" y="-15" height="30" />
	</g>
	<g transform="translate(12, 167)" >
		<rect x="-15" width="30" y="-15" height="30" />
	</g>
	<g transform="translate(77, 57)" >
		<rect x="-15" width="30" y="-15" height="30" />
	</g>
	<g transform="translate(188, 12)" >
		<rect x="-15" width="30" y="-15" height="30" />
	</g>
	<g transform="translate(165, 271)" >
		<rect x="-15" width="30" y="-15" height="30" />
	</g>
	<g transform="translate(226, 231)" >
		<rect x="-15" width="30" y="-15" height="30" />
	</g>
	<g transform="translate(201, 126)" >
		<rect x="-15" width="30" y="-15" height="30" />
	</g>
	<g transform="translate(20, 48)" >
		<rect x="-15" width="30" y="-15" height="30" />
	</g>
	<g transform="translate(73, 147)" >
		<rect x="-15" width="30" y="-15" height="30" />
	</g>
	<g transform="translate(66, 125)" >
		<rect x="-15" width="30" y="-15" height="30" />
	</g>
	<g transform="translate(75, 90)" >
		<rect x="-15" width="30" y="-15" height="30" />
	</g>
	<g transform="translate(233, 217)" >
		<rect x="-15" width="30" y="-15" height="30" />
	</g>
	<g transform="translate(64, 80)" >
		<rect x="-15" width="30" y="-15" height="30" />
	</g>
	<g transform="translate(133, 252)" >
		<rect x="-15" width="30" y="-15" height="30" />
	</g>
	<g transform="translate(9, 143)" >
		<rect x="-15" width="30" y="-15" height="30" />
	</g>
	<g transform="translate(297, 16)" >
		<rect x="-15" width="30" y="-15" height="30" />
	</g>
	<g transform="translate(45, 81)" >
		<rect x="-15" width="30" y="-15" height="30" />
	</g>
	<g transform="translate(26, 90)" >
		<rect x="-15" width="30" y="-15" height="30" />
	</g>
	<g transform="translate(130, 201)" >
		<rect x="-15" width="30" y="-15" height="30" />
	</g>
	<g transform="translate(297, 80)" >
		<rect x="-15" width="30" y="-15" height="30" />
	</g>
	<g transform="translate(284, 262)" >
		<rect x="-15" width="30" y="-15" height="30" />
	</g>
	<g transform="translate(226, 224)" >
		<rect x="-15" width="30" y="-15" height="30" />
	</g>
	<g transform="translate(281, 50)" >
		<rect x="-15" width="30" y="-15" height="30" />
	</g>
	<g transform="translate(250, 185)" >
		<rect x="-15" width="30" y="-15" height="30" />
	</g>
	<g transform="translate(280, 273)" >
		<rect x="-15" width="30" y="-15" height="30" />
	</g>
	<g transform="translate(133, 193)" >
		<rect x="-15" width="30" y="-15" height="30" />
	</g>
	<g transform="translate(177, 124)" >
		<rect x="-15" width="30" y="-15" height="30" />
	</g>
	<g transform="translate(93, 72)" >
		<rect x="-15" width="30" y="-15" height="30" />
	</g>
	<g transform="translate(165, 100)" >
		<rect x="-15" width="30" y="-15" height="30" />
	</g>
	<g transform="translate(71, 116)" >
		<rect x="-15" width="30" y="-15" height="30" />
	</g>
	<g transform="translate(63, 243)" >
		<rect x="-15" width="30" y="-15" height="30" />
	</g>
	<g transform="translate(135, 35)" >
		<rect x="-15" width="30" y="-15" height="30" />
	</g>
	<g transform="translate(258, 105)" >
		<rect x="-15" width="30" y="-15" height="30" />
	</g>
	<g transform="translate(131, 281)" >
		<rect x="-15" width="30" y="-15" height="30" />
	</g>
	<g transform="translate(275, 296)" >
		<rect x="-15" width="30" y="-15" height="30" />
	</g>
	<g transform="translate(133, 218)" >
		<rect x="-15" width="30" y="-15" height="30" />
	</g>
	<g transform="translate(23, 124)" >
		<rect x="-15" width="30" y="-15" height="30" />
	</g>
	<g transform="translate(299, 108)" >
		<rect x="-15" width="30" y="-15" height="30" />
	</g>
	<g transform="translate(83, 83)" >
		<rect x="-15" width="30" y="-15" height="30" />
	</g>
	<g transform="translate(232, 234)" >
		<rect x="-15" width="30" y="-15" height="30" />
	</g>
	<g transform="translate(280, 153)" >
		<rect x="-15" width="30" y="-15" height="30" />
	</g>
	<g transform="translate(289, 183)" >
		<rect x="-15" width="30" y="-15" height="30" />
	</g>
	<g transform="translate(65, 278)" >
		<rect x="-15" width="30" y="-15" height="30" />
	</g>
	<g transform="translate(26, 190)" >
		<rect x="-15" width="30" y="-15" height="30" />
	</g>
	<g transform="translate(172, 113)" >
		<rect x="-15" width="30" y="-15" height="30" />
	</g>
	<g transform="translate(42, 103)" >
		<rect x="-15" width="30" y="-15" height="30" />
	</g>
	<g transform="translate(17, 125)" >
		<rect x="-15" width="30" y="-15" height="30" />
	</g>
	<g transform="translate(99, 114)" >
		<rect x="-15" width="30" y="-15" height="30" />
	</g>
	<g transform="translate(74, 6)" >
		<rect x="-15" width="30" y="-15" height="30" />
	</g>
	<g transform="translate(163, 199)" >
		<rect x="-15" width="30" y="-15" height="30" />
	</g>
	<g transform="translate(148, 163)" >
		<rect x="-15" width="30" y="-15" height="30" />
	</g>
	<g transform="translate(13, 130)" >
		<rect x="-15" width="30" y="-15" height="30" />
	</g>
	<g transform="translate(187, 188)" >
		<rect x="-15" width="30" y="-15" height="30" />
	</g>
	<g transform="translate(143, 21)" >
		<rect x="-15" width="30" y="-15" height="30" />
	</g>
	<g transform="translate(181, 232)" >
		<rect x="-15" width="30" y="-15" height="30" />
	</g>
	<g transform="translate(95, 21)" >
		<rect x="-15" width="30" y="-15" height="30" />
	</g>
	<g transform="translate(141, 260)" >
		<rect x="-15" width="30" y="-15" height="30" />
	</g>
	<g transform="translate(138, 182)" >
		<rect x="-15" width="30" y="-15" height="30" />
	</g>
	<g transform="translate(280, 114)" >
		<rect x="-15" width="30" y="-15" height="30" />
	</g>
	<g transform="translate(125, 4)" >
		<rect x="-15" width="30" y="-15" height="30" />
	</g>
	<g transform="translate(254, 161)" >
		<rect x="-15" width="30" y="-15" height="30" />
	</g>
	<g transform="translate(76, 171)" >
		<rect x="-15" width="30" y="-15" height="30" />
	</g>
	<g transform="translate(237, 173)" >
		<rect x="-15" width="30" y="-15" height="30" />
	</g>
	<g transform="translate(122, 149)" >
		<rect x="-15" width="30" y="-15" height="30" />
	</g>
	<g transform="translate(142, 105)" >
		<rect x="-15" width="30" y="-15" height="30" />
	</g>
	<g transform="translate(38, 192)" >
		<rect x="-15" width="30" y="-15" height="30" />
	</g>
	<g transform="translate(281, 26)" >
		<rect x="-15" width="30" y="-15" height="30" />
	</g>
</svg>
